<svg width="4338" height="2910" viewBox="0 0 4338 2910" fill="none" xmlns="http://www.w3.org/2000/svg">
<path d="M543.014 2169H0L1.47101e-05 6.57242e-07C298.773 -2.54623e-05 540.977 243.116 540.977 543.014C540.977 243.116 783.864 1.55455e-05 1083.48 1.55455e-05C1383.1 1.55455e-05 1625.99 243.116 1625.99 543.014C1625.99 243.116 1868.65 1.55455e-05 2167.98 1.55455e-05C2467.32 1.55455e-05 2709.98 243.116 2709.98 543.014V2169H2169V1083.99C2169 937.136 2047.44 818.087 1897.49 818.087C1747.54 818.087 1625.99 937.136 1625.99 1083.99V2169H1085.01V1083.99C1085.01 937.13 963.213 818.087 812.993 818.087C662.773 818.087 540.977 937.13 540.977 1083.99L543.014 2169Z" fill="#F4FFFD"/>
<path d="M3794.99 543.014H4338V1085.01H3794.99V1628.02H4338V2169H3794.99C3496.21 2169 3254.01 1926.8 3254.01 1628.02V0C3552.78 -2.61196e-05 3794.99 243.116 3794.99 543.014Z" fill="#F4FFFD"/>
<path d="M3611.15 2483.18C3611.15 2494.68 3631.67 2499.54 3639.3 2490.93C3643.25 2486.47 3647.42 2482.51 3651.82 2479.04C3668.91 2465.78 3689.98 2459.15 3715.02 2459.15C3728.58 2459.15 3741.84 2460.77 3754.8 2464.01C3757.28 2464.62 3759.75 2465.28 3762.21 2465.99C3780.42 2471.24 3787.9 2491.83 3780.51 2509.28L3770.94 2531.86C3764.93 2546.03 3747.12 2550.72 3732.26 2546.67C3722.83 2543.72 3712.22 2542.25 3700.44 2542.25C3668.61 2542.25 3645.77 2555.07 3631.93 2580.7C3618.08 2606.05 3611.15 2648.77 3611.15 2708.89V2857.1C3611.15 2876.8 3595.19 2892.76 3575.49 2892.76H3550.89C3531.2 2892.76 3515.24 2876.8 3515.24 2857.1V2508.51C3515.24 2488.82 3531.2 2472.85 3550.89 2472.85H3600.83C3606.53 2472.85 3611.15 2477.48 3611.15 2483.18Z" fill="#F4FFFD"/>
<path d="M3414.9 2679.27C3414.9 2689.28 3406.79 2697.39 3396.78 2697.39H3117.72C3097.19 2697.39 3080.37 2714.9 3085.58 2734.77C3091.31 2756.64 3101.04 2774.83 3114.78 2789.33C3135.7 2811.14 3163.54 2822.04 3198.32 2822.04C3229.26 2822.04 3255.04 2815.56 3275.67 2802.59C3288.09 2794.78 3299.56 2784.08 3310.06 2770.5C3322.28 2754.69 3343.93 2747.82 3361.39 2757.55L3379.28 2767.52C3396.5 2777.12 3402.88 2799.06 3391.35 2815.05C3371.66 2842.36 3348.87 2863.69 3322.96 2879.06C3288.19 2899.69 3247.38 2910 3200.53 2910C3133.34 2910 3079.86 2889.52 3040.08 2848.56C3000.3 2807.6 2980.41 2752.94 2980.41 2684.58C2980.41 2618.86 3000.89 2564.94 3041.84 2522.8C3083.1 2480.37 3135.99 2459.15 3200.53 2459.15C3268.01 2459.15 3320.6 2478.45 3358.32 2517.06C3396.04 2555.66 3414.9 2609.73 3414.9 2679.27ZM3274.96 2632.86C3296.44 2632.86 3313.86 2613.38 3304.4 2594.09C3298.61 2582.28 3290.8 2572.36 3280.97 2564.35C3261.82 2548.44 3235.59 2540.48 3202.29 2540.48C3170.76 2540.48 3145.42 2548.14 3126.27 2563.47C3117.15 2570.76 3109.33 2579.83 3102.81 2590.67C3090.88 2610.53 3108.45 2632.86 3131.61 2632.86H3274.96Z" fill="#F4FFFD"/>
<path d="M2595.26 2845.88C2583.92 2830.56 2590.91 2809.57 2607.64 2800.46L2618.04 2794.79C2638.15 2783.85 2662.77 2795.76 2678.94 2811.97C2682.31 2815.35 2686 2818.41 2690.01 2821.16C2705.92 2832.06 2726.4 2837.51 2751.45 2837.51C2772.96 2837.51 2789.75 2832.65 2801.84 2822.92C2814.21 2812.91 2820.4 2799.35 2820.4 2782.26C2820.4 2759.57 2798.59 2740.12 2754.98 2723.91C2740.25 2718.61 2728.9 2714.19 2720.95 2710.65C2676.16 2692.09 2644.78 2673.23 2626.8 2654.08C2609.12 2634.92 2600.28 2611.64 2600.28 2584.24C2600.28 2546.82 2614.87 2516.47 2644.04 2493.19C2673.51 2469.91 2712.4 2458.27 2760.73 2458.27C2793.14 2458.27 2820.84 2464.31 2843.83 2476.39C2857.25 2483.19 2868.57 2491.7 2877.78 2501.93C2889.53 2514.98 2883.99 2534.56 2869.53 2544.52L2861.09 2550.32C2843.54 2562.4 2818.3 2553.72 2800.07 2542.69C2787.69 2534.74 2773.25 2530.76 2756.75 2530.76C2738.48 2530.76 2723.75 2535.18 2712.55 2544.02C2701.65 2552.56 2696.2 2564.06 2696.2 2578.49C2696.2 2600.3 2720.95 2620.19 2770.45 2638.17C2786.07 2643.76 2798.15 2648.33 2806.7 2651.87C2845.3 2667.19 2872.85 2684.58 2889.35 2704.02C2906.15 2723.18 2914.55 2747.19 2914.55 2776.07C2914.55 2817.91 2899.37 2850.77 2869.02 2874.64C2838.67 2898.21 2796.83 2910 2743.49 2910C2702.53 2910 2668.5 2902.34 2641.39 2887.02C2623.42 2876.86 2608.04 2863.15 2595.26 2845.88Z" fill="#F4FFFD"/>
<path d="M2251.09 2700.05C2243.73 2683.25 2237.69 2668.37 2232.97 2655.4C2228.7 2643.38 2211.04 2643.19 2206.78 2655.22C2205.44 2658.98 2204.16 2662.58 2202.91 2666.01C2197.91 2679.57 2193.93 2689.73 2190.98 2696.51L2107.77 2881.79C2104.77 2888.47 2098.14 2892.76 2090.82 2892.76C2083.72 2892.76 2077.24 2888.72 2074.13 2882.34L1899.57 2525.05C1888 2501.36 1905.25 2473.74 1931.61 2473.74H1953.89C1967.75 2473.74 1980.35 2481.77 1986.21 2494.33L2070.75 2675.74C2074.59 2684.28 2078.27 2696.07 2081.8 2711.1C2083.14 2716.21 2084.4 2721.53 2085.58 2727.04C2086.34 2730.55 2095.86 2730.47 2096.83 2727.01C2100.07 2715.52 2105.53 2701.37 2113.19 2684.58L2204.15 2483.84C2206.93 2477.69 2213.06 2473.74 2219.81 2473.74C2226.52 2473.74 2232.62 2477.64 2235.43 2483.74L2328 2684.58C2334.49 2698.72 2339.2 2711.83 2342.15 2723.91C2343.37 2728.48 2354.33 2728.78 2355.53 2724.21C2356.34 2721.12 2357.18 2718.08 2358.06 2715.07C2362.18 2700.93 2366.9 2688.11 2372.2 2676.62L2455.08 2494.62C2460.87 2481.9 2473.55 2473.74 2487.53 2473.74H2508.59C2534.98 2473.74 2552.23 2501.41 2540.61 2525.1L2365.33 2882.41C2362.22 2888.75 2355.78 2892.76 2348.72 2892.76C2341.41 2892.76 2334.79 2888.46 2331.82 2881.77L2251.09 2700.05Z" fill="#F4FFFD"/>
<path d="M1744.11 2684.58C1744.11 2645.68 1731.59 2612.82 1706.54 2586.01C1681.49 2558.9 1650.85 2545.34 1614.6 2545.34C1578.65 2545.34 1548.01 2558.9 1522.67 2586.01C1497.62 2612.82 1485.09 2645.68 1485.09 2684.58C1485.09 2723.47 1497.62 2756.48 1522.67 2783.59C1548.01 2810.4 1578.65 2823.81 1614.6 2823.81C1650.55 2823.81 1681.05 2810.4 1706.1 2783.59C1731.44 2756.48 1744.11 2723.47 1744.11 2684.58ZM1383.87 2683.69C1383.87 2653.05 1389.62 2624.17 1401.11 2597.06C1412.9 2569.65 1429.7 2545.34 1451.5 2524.13C1473.01 2503.21 1497.77 2487.15 1525.76 2475.95C1553.75 2464.75 1583.07 2459.15 1613.72 2459.15C1645.25 2459.15 1674.86 2464.75 1702.56 2475.95C1730.56 2487.15 1755.6 2503.65 1777.7 2525.45C1799.8 2546.96 1816.6 2571.27 1828.09 2598.38C1839.58 2625.49 1845.33 2653.93 1845.33 2683.69C1845.33 2714.63 1839.58 2743.66 1828.09 2770.77C1816.89 2797.88 1800.39 2821.89 1778.59 2842.81C1755.6 2864.92 1730.11 2881.56 1702.12 2892.76C1674.13 2904.25 1644.66 2910 1613.72 2910C1583.37 2910 1554.2 2904.25 1526.2 2892.76C1498.21 2881.56 1473.31 2865.21 1451.5 2843.7C1429.4 2821.89 1412.61 2797.44 1401.11 2770.33C1389.62 2743.22 1383.87 2714.34 1383.87 2683.69Z" fill="#F4FFFD"/>
<path d="M1177.46 2483.18C1177.46 2494.68 1197.97 2499.54 1205.61 2490.93C1209.56 2486.47 1213.73 2482.51 1218.12 2479.04C1235.21 2465.78 1256.28 2459.15 1281.33 2459.15C1294.88 2459.15 1308.14 2460.77 1321.11 2464.01C1323.59 2464.62 1326.06 2465.28 1328.52 2465.99C1346.73 2471.24 1354.21 2491.83 1346.81 2509.28L1337.24 2531.86C1331.23 2546.03 1313.42 2550.72 1298.57 2546.67C1289.14 2543.72 1278.53 2542.25 1266.74 2542.25C1234.92 2542.25 1212.08 2555.07 1198.23 2580.7C1184.38 2606.05 1177.46 2648.77 1177.46 2708.89V2857.1C1177.46 2876.8 1161.49 2892.76 1141.8 2892.76H1117.2C1097.51 2892.76 1081.54 2876.8 1081.54 2857.1V2508.51C1081.54 2488.82 1097.51 2472.85 1117.2 2472.85H1167.14C1172.84 2472.85 1177.46 2477.48 1177.46 2483.18Z" fill="#F4FFFD"/>
<path d="M647.491 2681.92C647.491 2724.65 658.393 2759.13 680.199 2785.35C702.299 2811.58 730.735 2824.69 765.507 2824.69C801.751 2824.69 829.745 2812.61 849.488 2788.45C869.526 2764.28 879.544 2729.96 879.544 2685.46C879.544 2641.26 869.084 2606.78 848.162 2582.03C827.535 2556.98 799.099 2544.46 762.854 2544.46C726.61 2544.46 698.321 2556.54 677.989 2580.7C657.657 2604.87 647.491 2638.61 647.491 2681.92ZM614.927 2319.78C634.62 2319.78 650.585 2335.75 650.585 2355.44V2459.34C650.585 2477.64 688.305 2490.12 704.067 2480.81C728.82 2466.37 758.287 2459.15 792.469 2459.15C848.162 2459.15 893.247 2479.78 927.723 2521.03C962.495 2561.99 979.88 2615.92 979.88 2682.81C979.88 2753.23 962.789 2808.78 928.607 2849.44C894.72 2889.81 848.162 2910 788.933 2910C759.466 2910 733.24 2904.11 710.256 2892.32C698.663 2886.3 687.801 2878.66 677.669 2869.41C668.226 2860.78 650.585 2866.86 650.585 2879.65C650.585 2886.89 644.713 2892.76 637.47 2892.76H590.327C570.633 2892.76 554.669 2876.8 554.669 2857.1V2355.44C554.669 2335.75 570.633 2319.78 590.327 2319.78H614.927Z" fill="#F4FFFD"/>
</svg>
